# xmcd
#
# Track frame offsets: 
#        150
#        13600
#        26070
#        38027
#        52070
#        60135
#        66750
#        77630
#        85727
#        93547
#        96680
#        107372
#        117655
#        134492
#        145365
#        155430
#        167430
#        176567
#        185322
#        194117
#        202595
#        213800
#        221665
#        227232
#        228845
#        238632
#        250447
#        254397
#        281847
#        288797
#        294130
#        299587
#        300037
#        302160
#        308142
#        318402
#        330915
#        340922
#        350892
#        358495
#
# Disc length: 4880 seconds
#
# Revision: 1
# Processed by: cddbd v1.5.2PL0 Copyright (c) Steve Scherf et al.
# Submitted via: ExactAudioCopyFreeDBPlugin 1.0
#
DISCID=56130e28
DTITLE=Johnny Cash - The Outtakes [CD2]
DYEAR=2007
DGENRE=Country
TTITLE0=Home Of The Blues (False Start and Undubbed Master)
TTITLE1=Give My Love To Rose
TTITLE2=Give My Love To Rose
TTITLE3=Give My Love To Rose (False Starts and Complete Take)
TTITLE4=Country Boy
TTITLE5=Leave That Junk Alone
TTITLE6=Doin' My Time
TTITLE7=Country Boy
TTITLE8=If The Good Lord's Willing
TTITLE9=I Heard That Lonesome Whistle Blow (False Starts)
TTITLE10=I Heard That Lonesome Whistle Blow
TTITLE11=I Was There When It Happened
TTITLE12=Big River (False Starts and Complete Take)
TTITLE13=Ballad Of A Teenage Queen
TTITLE14=Ballad Of A Teenage Queen
TTITLE15=Goodnight Irene
TTITLE16=Come In Stranger
TTITLE17=Guess Things Happen That Way (Undubbed Master
TTITLE18=Guess Things Happen That Way (Alternate Vocal Overdub)
TTITLE19=Guess Things Happen That Way (Alternate Vocal Overdub)
TTITLE20=Oh Lonesome Me (Undubbed Master)
TTITLE21=Sugartime
TTITLE22=Born To Lose (Incomplete Take)
TTITLE23=Born To Lose (False Start)
TTITLE24=Born To Lose (Undubbed Master
TTITLE25=You're The Nearest Thing To Heaven
TTITLE26=The Story Of A Broken Heart (False Start)
TTITLE27=The Story Of A Broken Heart (Complete Take and False Starts)
TTITLE28=Always Alone (False Starts and Incomplete Take)
TTITLE29=Always Alone (Incomplete Take)
TTITLE30=Always Alone (Incomplete Take)
TTITLE31=You Tell Me (False Start)
TTITLE32=You Tell Me (False Start)
TTITLE33=You Tell Me (Master)
TTITLE34=You Win Again
TTITLE35=You Win Again (False Starts and Undubbed Master)
TTITLE36=I Could Never Be Ashamed Of You
TTITLE37=I Could Never Be Ashamed Of You (Undubbed Master)
TTITLE38=Hey Good Lookin'
TTITLE39=Hey Good Lookin' (Undubbed Master)
EXTD=
EXTT0=
EXTT1=
EXTT2=
EXTT3=
EXTT4=
EXTT5=
EXTT6=
EXTT7=
EXTT8=
EXTT9=
EXTT10=
EXTT11=
EXTT12=
EXTT13=
EXTT14=
EXTT15=
EXTT16=
EXTT17=
EXTT18=
EXTT19=
EXTT20=
EXTT21=
EXTT22=
EXTT23=
EXTT24=
EXTT25=
EXTT26=
EXTT27=
EXTT28=
EXTT29=
EXTT30=
EXTT31=
EXTT32=
EXTT33=
EXTT34=
EXTT35=
EXTT36=
EXTT37=
EXTT38=
EXTT39=
PLAYORDER=
